<svg xmlns="http://www.w3.org/2000/svg" xmlns:xlink="http://www.w3.org/1999/xlink" width="500" zoomAndPan="magnify" viewBox="0 0 375 374.999991" height="500" preserveAspectRatio="xMidYMid meet" version="1.0"><defs><g/></defs><g fill="#ffffff" fill-opacity="1"><g transform="translate(18.189657, 331.965857)"><g><path d="M 224.171875 -212.953125 L 217.109375 -212.953125 L 217.53125 -224.171875 C 217.53125 -238.554688 213.789062 -249.070312 206.3125 -255.71875 C 198.84375 -262.363281 187.082031 -265.6875 171.03125 -265.6875 L 125.375 -265.6875 L 99.21875 -152.34375 L 127.4375 -152.34375 C 141 -152.34375 151.582031 -155.664062 159.1875 -162.3125 C 166.800781 -168.957031 171.859375 -179.335938 174.359375 -193.453125 L 181.40625 -193.453125 L 158.578125 -94.234375 L 151.515625 -94.234375 C 152.628906 -97.828125 153.738281 -102.804688 154.84375 -109.171875 C 155.945312 -115.535156 156.5 -119.96875 156.5 -122.46875 C 156.5 -129.101562 153.800781 -133.664062 148.40625 -136.15625 C 143.007812 -138.644531 137.128906 -139.890625 130.765625 -139.890625 L 96.71875 -139.890625 L 75.140625 -46.90625 C 72.648438 -36.664062 71.40625 -29.609375 71.40625 -25.734375 C 71.40625 -20.753906 73.132812 -17.296875 76.59375 -15.359375 C 80.050781 -13.421875 85.515625 -12.453125 92.984375 -12.453125 C 112.910156 -12.453125 129.582031 -14.179688 143 -17.640625 C 156.425781 -21.097656 168.117188 -27.460938 178.078125 -36.734375 C 188.046875 -46.003906 196.351562 -59.5 203 -77.21875 L 210.46875 -77.21875 L 188.046875 0 L 6.234375 0 L 7.890625 -7.0625 C 17.023438 -8.164062 23.734375 -11.757812 28.015625 -17.84375 C 32.304688 -23.9375 36.113281 -34.316406 39.4375 -48.984375 L 81.359375 -231.21875 C 83.847656 -241.1875 85.09375 -249.210938 85.09375 -255.296875 C 85.09375 -265.535156 78.453125 -270.65625 65.171875 -270.65625 L 66.421875 -278.140625 L 236.625 -278.140625 Z M 224.171875 -212.953125 "/></g></g></g><g fill="#ffffff" fill-opacity="1"><g transform="translate(202.08897, 331.965857)"><g><path d="M 151.515625 -180.578125 L 35.703125 -26.15625 L 94.65625 -26.15625 C 102.125 -26.15625 107.65625 -28.09375 111.25 -31.96875 C 114.851562 -35.84375 118.453125 -42.898438 122.046875 -53.140625 L 128.28125 -53.140625 L 112.5 0 L 9.546875 0 L 7.890625 -5.390625 L 124.125 -157.75 L 76.390625 -157.75 C 68.359375 -157.75 62.195312 -156.847656 57.90625 -155.046875 C 53.613281 -153.242188 50.222656 -150.546875 47.734375 -146.953125 C 45.242188 -143.359375 42.476562 -137.820312 39.4375 -130.34375 L 32.796875 -130.34375 L 48.984375 -183.484375 L 152.34375 -183.484375 Z M 151.515625 -180.578125 "/></g></g></g></svg>